<svg width="41" height="41" viewBox="0 0 41 41" fill="none" xmlns="http://www.w3.org/2000/svg">
<path fill-rule="evenodd" clip-rule="evenodd" d="M20.5 0C31.813 0 41 9.18704 41 20.5C41 31.813 31.813 41 20.5 41C9.18704 41 0 31.813 0 20.5C0 9.18704 9.18704 0 20.5 0ZM20.5 7.6875C17.0188 7.6875 16.5822 7.70268 15.2156 7.76343C13.8527 7.82417 12.9188 8.04056 12.1064 8.35944C11.2636 8.68593 10.5499 9.1263 9.8362 9.8362C9.1225 10.5499 8.68593 11.2636 8.35944 12.1064C8.04435 12.9226 7.82796 13.8527 7.76343 15.2156C7.70268 16.5822 7.6875 17.0188 7.6875 20.5C7.6875 23.9812 7.70268 24.4178 7.76343 25.7844C7.82417 27.1473 8.04056 28.0812 8.35944 28.8936C8.68593 29.7364 9.1263 30.4501 9.8362 31.1638C10.5499 31.8775 11.2636 32.3141 12.1064 32.6406C12.9226 32.9556 13.8527 33.172 15.2156 33.2366C16.5822 33.2973 17.0188 33.3125 20.5 33.3125C23.9812 33.3125 24.4178 33.2973 25.7844 33.2366C27.1473 33.1758 28.0812 32.9594 28.8936 32.6406C29.7364 32.3141 30.4501 31.8737 31.1638 31.1638C31.8775 30.4501 32.3141 29.7364 32.6406 28.8936C32.9556 28.0774 33.172 27.1473 33.2366 25.7844C33.2973 24.4178 33.3125 23.9812 33.3125 20.5C33.3125 17.0188 33.2973 16.5822 33.2366 15.2156C33.1758 13.8527 32.9594 12.9188 32.6406 12.1064C32.3141 11.2636 31.8737 10.5499 31.1638 9.8362C30.4501 9.1225 29.7364 8.68593 28.8936 8.35944C28.0774 8.04435 27.1473 7.82796 25.7844 7.76343C24.4178 7.70268 23.9812 7.6875 20.5 7.6875ZM20.5 9.99565C23.9205 9.99565 24.3267 10.007 25.6781 10.0716C26.9271 10.1285 27.6067 10.3373 28.0584 10.5119C28.6582 10.7435 29.0834 11.0206 29.5314 11.4686C29.9794 11.9166 30.2565 12.3456 30.4881 12.9416C30.6627 13.3933 30.8715 14.0729 30.9284 15.3219C30.9892 16.6733 31.0044 17.0795 31.0044 20.5C31.0044 23.9205 30.993 24.3267 30.9284 25.6781C30.8715 26.9271 30.6627 27.6067 30.4881 28.0584C30.2565 28.6582 29.9794 29.0834 29.5314 29.5314C29.0796 29.9794 28.6544 30.2565 28.0546 30.4881C27.6029 30.6627 26.9233 30.8715 25.6744 30.9284C24.3229 30.9892 23.9167 31.0044 20.4962 31.0044C17.0757 31.0044 16.6695 30.993 15.3181 30.9284C14.0691 30.8715 13.3895 30.6627 12.9378 30.4881C12.338 30.2565 11.9128 29.9794 11.4648 29.5314C11.0206 29.0796 10.7435 28.6544 10.5119 28.0546C10.3373 27.6029 10.1285 26.9233 10.0716 25.6744C10.0108 24.3229 9.99565 23.9167 9.99565 20.4962C9.99565 17.0757 10.007 16.6695 10.0716 15.3181C10.1285 14.0691 10.3373 13.3895 10.5119 12.9378C10.7435 12.338 11.0206 11.9128 11.4686 11.4648C11.9166 11.0169 12.3456 10.7397 12.9416 10.5081C13.3933 10.3335 14.0729 10.1247 15.3219 10.0678C16.6733 10.0108 17.0795 9.99565 20.5 9.99565ZM20.5 13.921C16.8669 13.921 13.921 16.8669 13.921 20.5C13.921 24.1331 16.8669 27.079 20.5 27.079C24.1331 27.079 27.079 24.1331 27.079 20.5C27.079 16.8669 24.1331 13.921 20.5 13.921ZM20.5 24.7708C18.1425 24.7708 16.2292 22.8575 16.2292 20.5C16.2292 18.1425 18.1425 16.2292 20.5 16.2292C22.8575 16.2292 24.7708 18.1425 24.7708 20.5C24.7708 22.8575 22.8575 24.7708 20.5 24.7708ZM28.8784 13.6591C28.8784 14.5094 28.1913 15.1966 27.3409 15.1966C26.4906 15.1966 25.8034 14.5094 25.8034 13.6591C25.8034 12.8087 26.4906 12.1216 27.3409 12.1216C28.1875 12.1216 28.8784 12.8125 28.8784 13.6591Z" fill="#D6D6D6"/>
</svg>
