<svg width="42" height="42" viewBox="0 0 42 42" fill="none" xmlns="http://www.w3.org/2000/svg">
<path fill-rule="evenodd" clip-rule="evenodd" d="M20.5 1C31.813 1 41 10.187 41 21.5C41 32.813 31.813 42 20.5 42C9.18704 42 0 32.813 0 21.5C0 10.187 9.18704 1 20.5 1ZM20.5 8.6875C17.0188 8.6875 16.5822 8.70268 15.2156 8.76343C13.8527 8.82417 12.9188 9.04056 12.1064 9.35944C11.2636 9.68593 10.5499 10.1263 9.8362 10.8362C9.1225 11.5499 8.68593 12.2636 8.35944 13.1064C8.04435 13.9226 7.82796 14.8527 7.76343 16.2156C7.70268 17.5822 7.6875 18.0188 7.6875 21.5C7.6875 24.9812 7.70268 25.4178 7.76343 26.7844C7.82417 28.1473 8.04056 29.0812 8.35944 29.8936C8.68593 30.7364 9.1263 31.4501 9.8362 32.1638C10.5499 32.8775 11.2636 33.3141 12.1064 33.6406C12.9226 33.9556 13.8527 34.172 15.2156 34.2366C16.5822 34.2973 17.0188 34.3125 20.5 34.3125C23.9812 34.3125 24.4178 34.2973 25.7844 34.2366C27.1473 34.1758 28.0812 33.9594 28.8936 33.6406C29.7364 33.3141 30.4501 32.8737 31.1638 32.1638C31.8775 31.4501 32.3141 30.7364 32.6406 29.8936C32.9556 29.0774 33.172 28.1473 33.2366 26.7844C33.2973 25.4178 33.3125 24.9812 33.3125 21.5C33.3125 18.0188 33.2973 17.5822 33.2366 16.2156C33.1758 14.8527 32.9594 13.9188 32.6406 13.1064C32.3141 12.2636 31.8737 11.5499 31.1638 10.8362C30.4501 10.1225 29.7364 9.68593 28.8936 9.35944C28.0774 9.04435 27.1473 8.82796 25.7844 8.76343C24.4178 8.70268 23.9812 8.6875 20.5 8.6875ZM20.5 10.9956C23.9205 10.9956 24.3267 11.007 25.6781 11.0716C26.9271 11.1285 27.6067 11.3373 28.0584 11.5119C28.6582 11.7435 29.0834 12.0206 29.5314 12.4686C29.9794 12.9166 30.2565 13.3456 30.4881 13.9416C30.6627 14.3933 30.8715 15.0729 30.9284 16.3219C30.9892 17.6733 31.0044 18.0795 31.0044 21.5C31.0044 24.9205 30.993 25.3267 30.9284 26.6781C30.8715 27.9271 30.6627 28.6067 30.4881 29.0584C30.2565 29.6582 29.9794 30.0834 29.5314 30.5314C29.0796 30.9794 28.6544 31.2565 28.0546 31.4881C27.6029 31.6627 26.9233 31.8715 25.6744 31.9284C24.3229 31.9892 23.9167 32.0044 20.4962 32.0044C17.0757 32.0044 16.6695 31.993 15.3181 31.9284C14.0691 31.8715 13.3895 31.6627 12.9378 31.4881C12.338 31.2565 11.9128 30.9794 11.4648 30.5314C11.0206 30.0796 10.7435 29.6544 10.5119 29.0546C10.3373 28.6029 10.1285 27.9233 10.0716 26.6744C10.0108 25.3229 9.99565 24.9167 9.99565 21.4962C9.99565 18.0757 10.007 17.6695 10.0716 16.3181C10.1285 15.0691 10.3373 14.3895 10.5119 13.9378C10.7435 13.338 11.0206 12.9128 11.4686 12.4648C11.9166 12.0169 12.3456 11.7397 12.9416 11.5081C13.3933 11.3335 14.0729 11.1247 15.3219 11.0678C16.6733 11.0108 17.0795 10.9956 20.5 10.9956ZM20.5 14.921C16.8669 14.921 13.921 17.8669 13.921 21.5C13.921 25.1331 16.8669 28.079 20.5 28.079C24.1331 28.079 27.079 25.1331 27.079 21.5C27.079 17.8669 24.1331 14.921 20.5 14.921ZM20.5 25.7708C18.1425 25.7708 16.2292 23.8575 16.2292 21.5C16.2292 19.1425 18.1425 17.2292 20.5 17.2292C22.8575 17.2292 24.7708 19.1425 24.7708 21.5C24.7708 23.8575 22.8575 25.7708 20.5 25.7708ZM28.8784 14.6591C28.8784 15.5094 28.1913 16.1966 27.3409 16.1966C26.4906 16.1966 25.8034 15.5094 25.8034 14.6591C25.8034 13.8087 26.4906 13.1216 27.3409 13.1216C28.1875 13.1216 28.8784 13.8125 28.8784 14.6591Z" fill="#68686B"/>
</svg>
