<svg width="42" height="42" viewBox="0 0 42 42" fill="none" xmlns="http://www.w3.org/2000/svg">
<path d="M20.5 0C9.17944 0 0 9.17944 0 20.5C0 31.8206 9.17944 41 20.5 41C31.8206 41 41 31.8206 41 20.5C41 9.17944 31.8206 0 20.5 0ZM30.0021 13.94C29.6946 17.182 28.3583 25.048 27.6788 28.6772C27.3903 30.2147 26.8246 30.7272 26.278 30.7804C25.0859 30.8905 24.1824 29.9945 23.0321 29.2391C21.2289 28.0546 20.2077 27.3219 18.4576 26.1679C16.4342 24.8354 17.7439 24.1027 18.898 22.9031C19.2017 22.588 24.4444 17.8198 24.5469 17.387C24.5582 17.3339 24.5734 17.1289 24.4519 17.0264C24.3305 16.9201 24.1558 16.9581 24.0268 16.9846C23.8445 17.0264 20.9631 18.9321 15.3788 22.7019C14.5626 23.2637 13.8185 23.537 13.1542 23.5219C12.4215 23.5067 11.0131 23.1081 9.96907 22.7664C8.68593 22.3488 7.66472 22.1286 7.75204 21.4187C7.79759 21.0505 8.3063 20.6708 9.27815 20.2874C15.2535 17.6831 19.2396 15.9672 21.2327 15.1358C26.9271 12.7669 28.1078 12.3569 28.8784 12.3418C29.0493 12.338 29.4289 12.3797 29.6719 12.5809C29.8351 12.7214 29.9376 12.9226 29.9642 13.1352C30.0097 13.4009 30.0211 13.6705 30.0021 13.94Z" fill="#D6D6D6"/>
</svg>
