<svg width="41" height="41" viewBox="0 0 41 41" fill="none" xmlns="http://www.w3.org/2000/svg">
<path d="M38.8817 11.4117C36.8886 7.38759 33.6124 4.11519 29.5921 2.12213C26.8512 0.763056 23.7648 0 20.5 0C17.2352 0 14.1488 0.763056 11.4117 2.11833C7.38759 4.11139 4.11519 7.38759 2.12213 11.4079C0.763056 14.1488 0 17.2352 0 20.5C0 23.7648 0.763056 26.8512 2.11833 29.5883C4.11139 33.6124 7.38759 36.8848 11.4079 38.8779C14.1488 40.2369 17.2352 41 20.5 41C23.7648 41 26.8512 40.2369 29.5883 38.8779C33.6124 36.8848 36.8848 33.6086 38.8779 29.5883C40.2369 26.8512 41 23.7648 41 20.5C41 17.2352 40.2369 14.1488 38.8817 11.4117ZM34.683 14.4791C33.2669 16.7796 31.9648 18.636 30.3856 20.8227C30.2869 20.9594 30.1919 21.1264 30.1957 21.2972C30.1995 21.4529 30.2793 21.6085 30.3856 21.7224C31.7902 23.203 33.2593 24.6911 34.6981 26.3159C35.1233 26.7943 34.8576 27.5345 34.7399 27.7433C34.6526 27.899 34.254 28.3052 33.9844 28.309C33.005 28.3166 33.005 28.309 28.9088 28.309C28.3014 28.309 28.0584 28.1306 27.7395 27.7965C26.3197 26.3045 26.4944 26.4868 24.9379 24.8202C24.7367 24.6038 24.3343 24.3305 23.9508 24.5051C23.6244 24.6531 23.0321 24.8695 23.0321 25.4656V27.5573C23.0321 27.9369 22.4361 28.2217 22.0793 28.2217H19.2928C17.9793 28.2217 16.8442 27.9066 16.2178 27.5991C13.5034 26.2818 11.8938 24.4481 10.1285 21.3959C8.62519 18.7879 7.31167 16.2216 6.02472 13.5338C5.88046 13.2339 5.77796 12.5733 6.85611 12.5733C7.9912 12.5733 9.05796 12.5468 10.7853 12.5468C11.294 12.5468 11.6091 12.6493 11.8217 12.8049C12.0343 12.9606 12.1406 13.1656 12.2469 13.3592C14.3956 17.3643 14.4031 17.611 15.9369 19.5965C16.0811 19.7825 16.2899 19.8129 16.4418 19.8129C16.6316 19.8129 16.8062 19.7825 16.9543 19.6648C17.2656 19.4143 17.3529 19.1447 17.3529 18.7613V14.7031C17.3529 14.2399 17.0378 13.5528 16.6885 13.3364C16.3279 13.1276 15.7319 12.9226 15.7508 12.6644C15.7698 12.3835 16.4266 11.909 17.592 11.909C18.9853 11.909 19.9723 11.909 21.525 11.9014C21.8591 11.9014 22.2956 11.9583 22.569 12.1481C22.7702 12.2886 23.0397 12.4519 23.0397 13.0858C23.0511 15.1586 23.0245 16.9656 23.0549 19.084C23.0967 19.5244 23.3814 19.7066 23.6509 19.7066C23.9205 19.7066 24.2318 19.5357 24.4633 19.308C25.7199 18.0742 27.1663 15.1055 28.0546 13.1618C28.3849 12.4367 28.9202 12.4822 29.5238 12.4822C31.5434 12.4784 32.3596 12.505 34.2502 12.5164C34.5956 12.5164 34.8994 12.8125 34.9981 13.0213C35.0816 13.1997 35.1423 13.7312 34.683 14.4791Z" fill="#68686B"/>
</svg>
